<svg xmlns="http://www.w3.org/2000/svg" width="250.661" height="148.884" viewBox="0 0 250.661 148.884">
  <g id="Group_120" data-name="Group 120" transform="translate(-49.862 -4863.451)">
    <path id="Path_89" data-name="Path 89" d="M174.6,5001.08a20.481,20.481,0,0,1-10.852-4.559c-3.539-2.855-6.445-1.089-10.236-1.859-2.7-.554-2.683-3.143-5.195-4.033-1.381-.491-2.95.908-4.437.067-2.618-1.479-.294-5.613-3.072-7.694-2.941-2.209-2.844.624-5.195,1.275-3.262.912-4-2.05-4.9-4.493-.14-.38-.262-.7-.372-.982-.682-1.74-.954-1.8-2.24-2.019a18.8,18.8,0,0,1-1.864-.381c-4.513-1.168-1.29-2.616-2.893-5.666-1.956-3.718-6.94-1.283-7.476,2.139-4.986-.24-3.165-5.689-3.9-8.779a2.353,2.353,0,0,0-1.9-2c-3.377-.687-2.159,2.748-2.936,4.687-.569,1.408-1.6.987-2.548-.009-1.107-1.168-.834-2.5-.768-3.979.064-1.443-.582-1.952-1.572-2.864-1.159-1.076-.462-.465-.258-1.722a2.815,2.815,0,0,0-.868-2.231c-1.806-2.027-3.41-1.452-3.581,1.084-.133,1.939,1.458,4.157.633,6.083-.743,1.73-2.045-.111-2.558-1.138-.713-1.417-1.725-1.054-2.57-2.112-.959-1.2-.168-2.89-1.087-4.129-1.39-1.886-2.036.168-3.375-.089-2.572-.509-1.675-9.083-5.613-6.91-1.341.744-1.915,3.931-1.956,5.33-.058,1.77-.864,3.364-2.439,1.514-1.078-1.266-1.2-3.36-2.5-4.409-1.2-.974-2.434-.332-3.359.819s-.658,2.452-.381,3.846a4.725,4.725,0,0,0,1.45,2.873c.52.54,1.44,1.448,1.093,2.359-.385,1-.423.04-.874-.212-.764-.429-1.7-.54-1.919.447-.144.647,1.186,3.577-.786,2.776-1.4-.572-1.25-2.944-3.36-2.665-1.965.261-.876,2.78-.44,3.891-2.815,1.531-6.823-7.393-8.933-2.214-.9,2.236,1.215,3.374,1.461,5.246.091.721-.336,1.288.133,2.005a4.873,4.873,0,0,0,1.649,1.1c1.1.651,2.083,1.7.644,2.908-1.3,1.085-3.683-.372-4.891,1.138-1.052,1.31-.032,2.4,1.168,3.076,1.259.7,2.758.248,4.006.908.779.416,2.535,1.067,2.271,2.08-.252.974-2.01,1.124-2.8,1.2-.695.067-1.439-.124-2.123.013-.748.155-1.372.483-2.118.611-.7.124-1.711.239-2.14.894-1.142,1.749,1.3,1.673,1.631,2.643.489,1.43-2.284,1.527-2.975,1.7-1.5.359-5.183,1.948-4.541,4.152.6,2.081,9.652.248,8.089,3.112-.516.947-2.948,2.3-.555,2.607.925.115,3.585-.659,4.176.266.564.881-1.533,1.846-2.041,2.4-1.157,1.27-1.21,2.935.764,2.837,1.8-.093,3.218-.788,4.92.173.553.309.848.079.675.89-.11.509-.772.986-1.184,1.252-.911.6-3.264,2.01-2.1,3.475a3.7,3.7,0,0,0,2.921.8c1.594-.456,2.579-1.647,4.418-1.094.374.115.708.483,1.073.558,2.021.425,4.376-1.461,6.282-1.921,1.885-.46,3.762.792,5.765.4,3.152-.611,6.018.062,9.123.482,4.434.6,8.231-.309,12.613-.845a24.626,24.626,0,0,1,14.637,2.209c6.4,3.209,11.35,1.58,17.471.562.894-.142,1.813-.279,2.762-.385,4.728-.523,8.382,2.642,13.043,1.522,9.249-2.231,20.685-2.226,30.213-2.226,1.638,0,3.577.168,5.514.239a18.121,18.121,0,0,0,6.234-.589c-3.594-1.8-7.292-1.523-10.683-3.9C180.295,5002.957,179.166,5001.594,174.6,5001.08Z" fill="#d5eaf1"/>
    <path id="Path_90" data-name="Path 90" d="M168.719,4906a12.539,12.539,0,0,0,1.576-.124c-.049-.315-.064-.611-.086-.877a3.329,3.329,0,0,0-.171-.9c-.52.283-1.089.443-1.575.664-.747.31-1.008.606-.959.731a.519.519,0,0,0,.042.2C167.546,4905.782,167.871,4906.012,168.719,4906Z" fill="#d5eaf1"/>
    <path id="Path_91" data-name="Path 91" d="M116.851,4918.977c.436,2.935.509,6.166.806,9.313a2.105,2.105,0,0,1,1.082,1.838c0,1.682-.13,3.381-.128,4.975a12.132,12.132,0,0,0,.7,4.657,3.856,3.856,0,0,0,1.89,1.974,13.832,13.832,0,0,0,3.486,1.12c.533.119,1.76.274,3.039.566a9.548,9.548,0,0,1,3.979,1.674,4.125,4.125,0,0,1,1.6,3.222,4.451,4.451,0,0,1-.046.637c-.4,2.245-1.288,3.657-1.317,4.693-.027.332-.042.677-.042,1.022a20.518,20.518,0,0,0,.179,2.541,58.693,58.693,0,0,1,.574,7.082,24.175,24.175,0,0,1-.244,3.435c1.324-.026,2.651-.11,3.991-.239.774-3.758,2.014-7.543,2.959-11.093a66.391,66.391,0,0,1,2.093-7.617c1.452-3.321,3.172-5.68,3.1-7.791a5.458,5.458,0,0,0-.4-1.983,3.2,3.2,0,0,0-1.291-1.116,10.09,10.09,0,0,0-2.392-.96c-2.519-.651-5.119-1.709-6.883-1.762-1.554-.08-3.152-.221-4.535-.221-.379,0-.739.009-1.078.035v0a2.108,2.108,0,0,1-.3-4.205c.458-.044.92-.053,1.381-.053,1.658,0,3.315.159,4.738.226a32.323,32.323,0,0,1,7.023,1.7,1.472,1.472,0,0,1,.221-.106c2.5-.89,5.792-2.506,9.278-3.068-.146-.646-.281-1.292-.391-1.934-.5-2.86-.027-5.861.11-8.729.051-1.071.164-2.107.3-3.139a17.977,17.977,0,0,1,1.633,3.263c.658,1.969,1.116,4.01,1.634,6.038a9.469,9.469,0,0,0,.619-2.028c.786-4.019,2.154-7.361,2.125-10.619a2.084,2.084,0,0,1,.3-1.071c-.118-.682-.227-1.368-.335-2.05-.686-.026-1.372-.079-2.045-.172-1.907-.177-3.114-1.2-3.056-2.6a8.565,8.565,0,0,1,.766-2.9c.358-.912,1.033-2.749,1.863-4.44.142-.27.283-.544.427-.806a4.206,4.206,0,0,0-2.12-1.66c-1.193-.456-2.977-1.376-4.759-1.907a27.028,27.028,0,0,0-4.247-3.479c1.481-2.316,3.054-5.038,2.495-7.831-.335-1.665.083-2.829.185-4.369a13.128,13.128,0,0,0-.774-4.086,3.874,3.874,0,0,0-1.034-2.248c-2.036-2.3-5.467-1.674-8.174-1.674a7.009,7.009,0,0,0-6.42,4.188c-.795,1.518-1.961,4.024-1.33,5.754.356.983,1.244,1.775,1.693,2.816a18.772,18.772,0,0,1,.825,2.222,5.3,5.3,0,0,1-.115,1.947c-.033.107-.077.213-.119.319-1.642.12-3.283.332-4.878.553-2.125.3-4.6.514-6.184,2.143-1.645,1.686-2.328,4.683-2.866,6.923a35.285,35.285,0,0,0-.9,10.579A105.041,105.041,0,0,0,116.851,4918.977Z" fill="#d5eaf1"/>
    <path id="Path_92" data-name="Path 92" d="M152.609,4906.437c.06.624.1.885,1.843,1.213a19.2,19.2,0,0,0,2.459.177,11.685,11.685,0,0,0,3.871-.607c1.424-.456,3.161-1.952,5.182-2.005a.432.432,0,0,1,.17.031c.168-1.036,1.089-1.478,1.777-1.779a8,8,0,0,0,1.784-.824c.354-.429,1.12-.084,1.33.319a4.564,4.564,0,0,1,.211,1.27,4.142,4.142,0,0,1,.263,1.386c-.06.31-.631.544-.409.943.241.442,1.653.19,1.9-.182a.884.884,0,0,0,1.472-.1c-.009.513.487.456.741.137a11.32,11.32,0,0,0,.653-1.27c.518-.877-.11-1.837.259-2.679a4.335,4.335,0,0,1,.865,1.572c.317.717.083,1.624.423,2.333.286.593.8.381,1.023-.19a4.607,4.607,0,0,0,.06-2.444c-.394-1.784-.343-3.4-1.45-3.74a4.875,4.875,0,0,0-1.693-.235c-1.321,0-2.886.244-4.044.248h-.062a24.413,24.413,0,0,0-7.7,1.452.693.693,0,0,1-.837-.323.7.7,0,0,1,.16-.881c2.153-1.771,4.931-5.06,4.975-7.578a.7.7,0,0,1,1.4.048c-.119,2.39-1.671,4.732-3.368,6.583a22.643,22.643,0,0,1,5.433-.709c.974.009,2.577-.239,4.044-.243a6.156,6.156,0,0,1,2.218.332,3.093,3.093,0,0,1,1.719,1.925c1.08-.013,2.216-.194,3.431-.194.219,0,.451,0,.686.017,1.788.142,3.238.956,4.672,1.355,2.966.859,5.892,2.271,8.676,2.881a25.787,25.787,0,0,0,3.721.5c-.895-1.382-1.815-2.63-2.136-3.263-2.705-5.281-3.127-11.6-7.705-15.7a12.735,12.735,0,0,0-2.381-1.647c.146-.389.308-.77.471-1.168a16.468,16.468,0,0,0,1.419-3.758c.173-1.289-.556-2.262-.489-3.617.106-2.081.494-3.856.141-5.609a2.916,2.916,0,0,0-.551-2.677,9.374,9.374,0,0,0-4.408-3.2,12.346,12.346,0,0,0-6.476-1.022,4.183,4.183,0,0,0-4.164,4.032,9.166,9.166,0,0,0-.471.9c-2.408.677-2.213,2.731-1.684,5.17.695,3.209,1.58,6.449,2.554,9.658a14.864,14.864,0,0,0-2.138.824c-2.937,1.425-7.346,3.023-9.867,5.108-2.308,1.912-2.578,4.321-4.212,6.781a20.833,20.833,0,0,1-2.414,2.9,6.78,6.78,0,0,0-1.948,2.39c-.113.371-.031.748-.113,1.124a11.421,11.421,0,0,1-.619,1.638A7.6,7.6,0,0,0,152.609,4906.437Z" fill="#d5eaf1"/>
    <path id="Path_93" data-name="Path 93" d="M105.438,4942.973c3.727,3.656,10.046,10.544,9.085,16.286a6.1,6.1,0,0,1-.416,1.345,4.45,4.45,0,0,1,.608.9,8.465,8.465,0,0,1,.932,3.51c.038.708.051,1.377.063,1.983a7.948,7.948,0,0,1,4.74-1.642,6.626,6.626,0,0,1,4.655,1.921,2.11,2.11,0,0,1,.294.022c.91.137,1.831.235,2.756.314a19.283,19.283,0,0,0,.276-3.32,54.868,54.868,0,0,0-.544-6.56,24.294,24.294,0,0,1-.208-3.063c0-.465.017-.925.055-1.39.268-2.372,1.259-3.891,1.341-4.882a.2.2,0,0,0-.033-.031,3.978,3.978,0,0,0-1.253-.571c-1.246-.394-2.857-.58-4.01-.819a17.835,17.835,0,0,1-4.564-1.519,8.087,8.087,0,0,1-3.793-4.054,16.135,16.135,0,0,1-1.031-6.3c0-1.27.068-2.5.1-3.63-.1,0-.2.009-.305.009-3.424,0-9.2-1.182-12.388-.026C95.728,4933.655,103.178,4940.755,105.438,4942.973Z" fill="#d5eaf1"/>
    <path id="Path_94" data-name="Path 94" d="M191.761,4922.456c.171-1.195.275-2.461.337-3.784a1.968,1.968,0,0,1-.237-.293c-1.676-2.748-2.4-4.072-4.6-5.24-3.092-1.638-5.772-3.767-8.492-5.232a3.943,3.943,0,0,1-1.074.322.746.746,0,0,1-.139.014.7.7,0,0,1-.64-.408,6.6,6.6,0,0,1-.3-.929,1.916,1.916,0,0,1-1.853,1.2,1.63,1.63,0,0,1-1.047-.359,1.535,1.535,0,0,1-1.113.461,2.305,2.305,0,0,1-1.729-.935c-.011-.013-.019-.026-.033-.044a17.932,17.932,0,0,1-2.127.177,2.569,2.569,0,0,1-2.339-.938.7.7,0,0,1-.41.146c-1.255-.036-2.979,1.288-4.72,1.938a12.546,12.546,0,0,1-3.04.621,2.208,2.208,0,0,1,.981.77,1.807,1.807,0,0,1,.224.522,2.108,2.108,0,0,1,1.144,1.868c-.029,4.36-1.578,7.963-2.2,11.4-.666,3.054-2.494,6.255-2.39,7.818a1.5,1.5,0,0,0,.024.283,4.093,4.093,0,0,0,.419,1.093,6.431,6.431,0,0,1,.661,2.576,2.111,2.111,0,0,1,0,.253c-.027,1.226-.219,2.036-.2,2.381s-.024.359.39.97c1.186,1.664,3.332,2.447,5.917,3.855a2.11,2.11,0,0,1,.262,3.5c-2.2,1.633-4.608,6.224-5.339,9.318a62.857,62.857,0,0,0-1.06,7.4c1.585-.469,3.136-.982,4.655-1.562,2.31-4.834,3.859-10.159,7.733-15.174,1.41-1.713,3.165-4.334,3.061-5.71a1.806,1.806,0,0,0-.089-.6,7.464,7.464,0,0,0-1.713-2.245,9.082,9.082,0,0,0-2.344-1.744h0a2.109,2.109,0,0,1,1.474-3.953,12.374,12.374,0,0,1,3.813,2.678,15.52,15.52,0,0,1,1.837,2.161c1.589-.616,3.22-1.28,4.812-1.988a4.577,4.577,0,0,1-.226-1.408,7.33,7.33,0,0,1,2.476-4.948,20.66,20.66,0,0,1,3.411-2.683c1.076-.677,2.4-1.217,3.6-1.85a7.631,7.631,0,0,0,2.1-1.43v0h0c0-.009.007-.013.011-.027A1.474,1.474,0,0,1,191.761,4922.456Z" fill="#d5eaf1"/>
    <path id="Path_95" data-name="Path 95" d="M296.608,4953.791c-11.918-12.527-23.85-24.372-39.115-33.118-3.515-2.015-4.148-5-8.162-6.68-1.961-.819-3.779-1.833-5.908-1.851-1.341-.017-2.886,1.244-4.2,1.08-3.066-.393-6.386-3.784-9.885-4.59a51.827,51.827,0,0,0-15.977-1.022,26.3,26.3,0,0,1-9.362-.934c-.193,0-.383.008-.574.008a32.151,32.151,0,0,1-6.98-.637c-3.008-.668-5.952-2.093-8.76-2.9a22.78,22.78,0,0,0-4.389-1.306c-.193-.017-.385-.022-.582-.022-.97,0-2.012.142-3.112.182a9.844,9.844,0,0,0,.25,1.4c.033.123.067.248.1.38a.926.926,0,0,1,.178.067c3.45,1.761,6.307,4.108,9.092,5.555,3.3,1.709,4.707,4.232,6.25,6.786a2.11,2.11,0,0,1,.078,2.036,4.078,4.078,0,0,1,.334,1.89,4.208,4.208,0,0,1-.651,1.824,2.1,2.1,0,0,1,.445,2.023c-.808,2.155-2.455,2.908-3.9,3.767-1.465.774-3.008,1.447-3.557,1.81a16.68,16.68,0,0,0-2.7,2.112,3.591,3.591,0,0,0-1.243,1.969.453.453,0,0,0,.033.177,3.169,3.169,0,0,0,.586.16,13.952,13.952,0,0,0,2.524.177c1.1,0,2.173-.062,2.983-.071.038,0,.088,0,.161,0,4.828.017,9.279.929,13.486.916.182,0,.352,0,.518,0a2.11,2.11,0,0,1,.872,4.046,38,38,0,0,0-6.859,4.5c-4.462,3.249-8.309,7.6-13.216,11.239-6.6,4.852-14.379,7.733-21.532,10.557a67.419,67.419,0,0,1-13.331,3.763c-2.437.412-4.9.713-7.312,1.244a54.084,54.084,0,0,1-11.655,1.655c-1.421-.009-2.838-.1-4.247-.225a7.5,7.5,0,0,1,.059.938c0,.128,0,.248-.009.367.651.155,1.081.217,1.614.3a5.983,5.983,0,0,1,2.363.9,30.96,30.96,0,0,1,6.31-.535c1.574,0,3.106.048,4.56.048.77,0,1.509-.009,2.222-.048,8.853-.478,18.047-2.4,27.019-4.042,7.6-1.39,15.184-3.227,22.956-4.63,7.64-1.368,15.278-2.545,22.985-3.519,4.553-.567,9.223-1.78,14.222-2.147,5.372-.372,10.586-.089,15.569-.5,2.3-.19,4.57-.239,6.812-.239,2.567,0,5.092.063,7.591.063,1.242,0,2.466-.014,3.69-.054,4.03-.15,8.116-.54,12.312-.735,2.632-.115,5.507-.77,8.641-.925.657-.031,1.735-.141,2.862-.146a7.394,7.394,0,0,1,3.417.664,4.034,4.034,0,0,1,2.277,3.612,6.506,6.506,0,0,1-.85,2.931c2.532-.226,5.248-.647,6.215-2.329C301.676,4959.037,298.274,4955.544,296.608,4953.791Z" fill="#d5eaf1"/>
    <path id="Path_96" data-name="Path 96" d="M77.781,4940.335c-2.718-.265-1.532,4.67-.6,5.839C79.268,4948.772,80.8,4940.627,77.781,4940.335Z" fill="#d5eaf1"/>
    <path id="Path_97" data-name="Path 97" d="M84.779,4944.678c.394-.872,1.049-2.36-.066-3.006-1.22-.708-1.693,1.5-1.778,2.262a6.8,6.8,0,0,0-.119,1.908C83.526,4947.418,84.482,4945.341,84.779,4944.678Z" fill="#d5eaf1"/>
    <path id="Path_98" data-name="Path 98" d="M190.5,4938.286c-.6,0-1.793.066-3.074.066a17.8,17.8,0,0,1-3.325-.252c-.093-.018-.186-.04-.279-.062-2.357,1.128-4.816,2.142-7.146,3.041-.253,3.527-2.638,6.2-3.911,7.945-2.446,3.125-3.891,6.649-5.48,10.394,5.553-2.235,11.008-4.675,15.581-8.056,4.449-3.263,8.3-7.619,13.224-11.239.585-.426,1.171-.868,1.773-1.315a72.331,72.331,0,0,0-7.293-.522h-.07Z" fill="#d5eaf1"/>
    <path id="Path_99" data-name="Path 99" d="M143.428,4957.492c-.854,3.179-1.868,6.388-2.583,9.407.963-.169,1.931-.346,2.893-.554,2.975-.633,5.96-1.261,8.891-1.983.425-2.7.591-6.383,1.388-9.614a26.25,26.25,0,0,1,4.384-9.052c-.036,0-.062,0-.1,0-.989-.018-2.594.412-4.181.611-2.335.257-4.754.717-7.27,1.04a31.345,31.345,0,0,0-1.5,3.05A66.042,66.042,0,0,0,143.428,4957.492Z" fill="#d5eaf1"/>
    <path id="Path_100" data-name="Path 100" d="M152.859,4935.559a2.443,2.443,0,0,0-.286-.89c-.124-.288-.32-.686-.491-1.173a21.184,21.184,0,0,0-5.909,1.571,5.872,5.872,0,0,1,1.908,2.4,9.62,9.62,0,0,1,.679,3.515,10.591,10.591,0,0,1-.215,1.859c1.649-.257,3.344-.545,5.106-.739.169-.013.381-.053.582-.089-.117-.132-.243-.248-.354-.4a5.613,5.613,0,0,1-1.223-3.484c.021-1.066.192-1.713.2-2.39A1.167,1.167,0,0,1,152.859,4935.559Z" fill="#d5eaf1"/>
    <path id="Path_101" data-name="Path 101" d="M287.666,4965.15c1.364-1.616,3.108-3.78,2.851-3.913a4.228,4.228,0,0,0-1.447-.168c-.85,0-1.817.1-2.661.137-2.636.115-5.511.77-8.643.925-4.063.2-8.162.58-12.356.735-1.293.049-2.572.062-3.845.062-2.565,0-5.1-.062-7.591-.062-2.18,0-4.338.049-6.463.221-5.371.443-10.6.151-15.619.514-4.49.314-9.088,1.492-13.994,2.124-7.632.961-15.2,2.125-22.764,3.488-7.6,1.364-15.191,3.206-22.945,4.627-8.9,1.628-18.259,3.589-27.555,4.1-.818.04-1.635.053-2.445.053-1.541,0-3.074-.049-4.56-.049a34.756,34.756,0,0,0-3.778.181c.056.147.107.284.166.443.313.89.594,1.678.809,2.147a8.975,8.975,0,0,1,1.382-1.2,5,5,0,0,1,2.763-.854,6.559,6.559,0,0,1,3.946,1.531,7.592,7.592,0,0,1,2.895,5.436c.053.633.093,1.178.126,1.6a7.752,7.752,0,0,1,1.713-.217,5.378,5.378,0,0,1,1.839.31,8.849,8.849,0,0,1,4.122,3.285c.5.6.484.588.522.588a.162.162,0,0,1,.077.023,8.414,8.414,0,0,0,1.7.146c.757,0,1.636-.063,2.7-.067a11.11,11.11,0,0,1,7.352,2.488,16.889,16.889,0,0,0,9.037,3.807,16.066,16.066,0,0,1,6.343,1.881,56,56,0,0,1,4.749,3.271,11.865,11.865,0,0,0,4.1,1.638,28.344,28.344,0,0,1,6.124,1.987,3.515,3.515,0,0,1,1.941,3.382,3.456,3.456,0,0,1-.23,1.027c.582.027,1.164.071,1.744.089,6.478.181,12.6-1.107,18.952-1.346,14.034-.536,25.143-5.2,36.2-13.258,7.162-5.232,11.267-13.748,18.346-18.2a54.3,54.3,0,0,0,7.013-4.945c2.131-1.881,3.926-4.222,5.876-6.21C286.279,4966.77,286.914,4966.044,287.666,4965.15Z" fill="#d5eaf1"/>
  </g>
</svg>
