<svg xmlns="http://www.w3.org/2000/svg" width="266.233" height="37.645" viewBox="0 0 266.233 37.645">
  <g id="Group_206" data-name="Group 206" transform="translate(-932.247 -1343.021)">
    <g id="Group_204" data-name="Group 204">
      <g id="Group_202" data-name="Group 202">
        <path id="Path_113" data-name="Path 113" d="M932.248,1349.658c-.005.541.028,1.084.065,1.624a47.5,47.5,0,0,0,.666,5.193,35.7,35.7,0,0,0,1.481,5.6,32.315,32.315,0,0,0,3.32,6.9,26.8,26.8,0,0,0,6.242,6.678,23.889,23.889,0,0,0,8.193,3.962,32.781,32.781,0,0,0,11.247.927,59.625,59.625,0,0,0,14.528-3.171,119.014,119.014,0,0,0,18.423-8.352,222.574,222.574,0,0,0,21.949-13.988q3.05-2.175,6.048-4.421a4.453,4.453,0,0,0,1.873-2.435,4.165,4.165,0,0,0-.411-3.141,4.109,4.109,0,0,0-2.435-1.872,3.959,3.959,0,0,0-3.14.41c-10.263,7.672-20.948,14.935-32.4,20.733-2.43,1.23-4.9,2.387-7.405,3.448l.974-.411a73.453,73.453,0,0,1-13.621,4.393q-1.64.339-3.3.566l1.083-.146a34.428,34.428,0,0,1-9.131.1l1.084.146a23.625,23.625,0,0,1-5.985-1.606l.974.41a20.294,20.294,0,0,1-3.22-1.72q-.369-.243-.727-.5c-.1-.076-.209-.154-.313-.231-.582-.43.976.776.418.322-.443-.36-.876-.729-1.291-1.12q-.6-.564-1.148-1.175c-.185-.2-.365-.411-.542-.622s-.809-1.021-.213-.249-.006-.015-.166-.238-.309-.438-.458-.661q-.432-.649-.824-1.324a27.652,27.652,0,0,1-1.536-3.093l.41.974a34.7,34.7,0,0,1-2.135-7.3q-.156-.864-.273-1.734l.145,1.083a35.885,35.885,0,0,1-.3-3.734c0-.073,0-.148,0-.222a4.075,4.075,0,0,0-8.15,0Z" fill="#edf2f4"/>
      </g>
      <g id="Group_203" data-name="Group 203">
        <path id="Path_114" data-name="Path 114" d="M1018.278,1349.658c-.005.541.028,1.084.065,1.624a47.5,47.5,0,0,0,.666,5.193,35.705,35.705,0,0,0,1.481,5.6,32.315,32.315,0,0,0,3.32,6.9,26.821,26.821,0,0,0,6.242,6.678,23.889,23.889,0,0,0,8.193,3.962,32.783,32.783,0,0,0,11.247.927,59.626,59.626,0,0,0,14.528-3.171,119.016,119.016,0,0,0,18.423-8.352,222.559,222.559,0,0,0,21.949-13.988q3.05-2.175,6.048-4.421a4.453,4.453,0,0,0,1.873-2.435,4.166,4.166,0,0,0-.411-3.141,4.109,4.109,0,0,0-2.435-1.872,3.959,3.959,0,0,0-3.14.41c-10.263,7.672-20.948,14.935-32.4,20.733-2.429,1.23-4.9,2.387-7.405,3.448l.974-.411a73.456,73.456,0,0,1-13.621,4.393q-1.64.339-3.3.566l1.083-.146a34.428,34.428,0,0,1-9.131.1l1.084.146a23.625,23.625,0,0,1-5.985-1.606l.974.41a20.294,20.294,0,0,1-3.22-1.72c-.246-.162-.489-.329-.727-.5-.1-.076-.209-.154-.313-.231-.582-.43.977.776.418.322-.443-.36-.876-.729-1.291-1.12q-.6-.564-1.148-1.175-.276-.306-.542-.622c-.183-.22-.809-1.021-.213-.249s-.006-.015-.166-.238-.309-.438-.458-.661q-.432-.649-.824-1.324a27.663,27.663,0,0,1-1.536-3.093l.411.974a34.648,34.648,0,0,1-2.136-7.3q-.156-.864-.273-1.734l.146,1.083a35.6,35.6,0,0,1-.3-3.734c0-.073,0-.148,0-.222a4.075,4.075,0,0,0-8.151,0Z" fill="#edf2f4"/>
      </g>
    </g>
    <g id="Group_205" data-name="Group 205">
      <path id="Path_115" data-name="Path 115" d="M1104.308,1349.658c-.005.541.028,1.084.065,1.624a47.519,47.519,0,0,0,.666,5.193,35.813,35.813,0,0,0,1.481,5.6,32.315,32.315,0,0,0,3.32,6.9,26.823,26.823,0,0,0,6.242,6.678,23.9,23.9,0,0,0,8.193,3.962,32.783,32.783,0,0,0,11.247.927,59.623,59.623,0,0,0,14.529-3.171,119.006,119.006,0,0,0,18.422-8.352,222.33,222.33,0,0,0,21.949-13.988q3.049-2.175,6.048-4.421a4.453,4.453,0,0,0,1.873-2.435,4.161,4.161,0,0,0-.411-3.141,4.109,4.109,0,0,0-2.435-1.872,3.959,3.959,0,0,0-3.14.41c-10.262,7.672-20.948,14.935-32.4,20.733-2.429,1.23-4.9,2.387-7.4,3.448l.973-.411a73.454,73.454,0,0,1-13.621,4.393q-1.638.339-3.3.566l1.084-.146a34.428,34.428,0,0,1-9.131.1l1.083.146a23.635,23.635,0,0,1-5.985-1.606l.974.41a20.331,20.331,0,0,1-3.22-1.72q-.369-.243-.727-.5c-.1-.076-.209-.154-.313-.231-.582-.43.977.776.418.322-.443-.36-.876-.729-1.291-1.12q-.6-.564-1.148-1.175c-.184-.2-.365-.411-.541-.622s-.81-1.021-.213-.249-.007-.015-.166-.238-.31-.438-.458-.661q-.433-.649-.824-1.324a27.817,27.817,0,0,1-1.537-3.093l.411.974a34.641,34.641,0,0,1-2.136-7.3q-.156-.864-.273-1.734l.146,1.083a35.671,35.671,0,0,1-.3-3.734c0-.073,0-.148,0-.222a4.076,4.076,0,0,0-8.151,0Z" fill="#edf2f4"/>
    </g>
  </g>
</svg>
