<svg xmlns="http://www.w3.org/2000/svg" width="177.435" height="37.067" viewBox="0 0 177.435 37.067">
  <g id="Group_195" data-name="Group 195" transform="translate(-78.314 -777.426)">
    <g id="Group_193" data-name="Group 193">
      <path id="Path_107" data-name="Path 107" d="M78.315,783.961c-.006.533.027,1.068.063,1.6a46.8,46.8,0,0,0,.656,5.113,35.185,35.185,0,0,0,1.459,5.51,31.8,31.8,0,0,0,3.268,6.8,26.422,26.422,0,0,0,6.147,6.576,23.538,23.538,0,0,0,8.067,3.9,32.327,32.327,0,0,0,11.074.913,58.739,58.739,0,0,0,14.306-3.123,117.066,117.066,0,0,0,18.139-8.224,218.965,218.965,0,0,0,21.612-13.772q3-2.142,5.956-4.354a4.387,4.387,0,0,0,1.844-2.4,4.1,4.1,0,0,0-.4-3.092,4.048,4.048,0,0,0-2.4-1.844,3.9,3.9,0,0,0-3.092.405c-10.1,7.553-20.626,14.7-31.9,20.414-2.392,1.211-4.821,2.35-7.291,3.395l.958-.4a72.344,72.344,0,0,1-13.411,4.326q-1.614.333-3.248.557l1.067-.143a33.877,33.877,0,0,1-8.991.1l1.067.144a23.309,23.309,0,0,1-5.893-1.582l.959.4a20.053,20.053,0,0,1-3.17-1.694q-.364-.238-.716-.494c-.1-.075-.206-.152-.308-.228-.573-.423.961.764.411.317-.436-.354-.862-.717-1.271-1.1q-.588-.555-1.13-1.156-.273-.3-.533-.613c-.181-.216-.8-1.005-.21-.245s-.006-.015-.164-.234-.3-.432-.451-.651q-.426-.639-.811-1.3a27.378,27.378,0,0,1-1.513-3.045l.4.958a34.119,34.119,0,0,1-2.1-7.188q-.154-.851-.269-1.708l.143,1.067a35.088,35.088,0,0,1-.3-3.676c0-.073,0-.146,0-.219a4.012,4.012,0,1,0-8.025,0Z" fill="#edf2f4"/>
    </g>
    <g id="Group_194" data-name="Group 194">
      <path id="Path_108" data-name="Path 108" d="M163.024,783.961c-.005.533.027,1.068.064,1.6a46.8,46.8,0,0,0,.655,5.113,35.185,35.185,0,0,0,1.459,5.51,31.8,31.8,0,0,0,3.268,6.8,26.422,26.422,0,0,0,6.147,6.576,23.537,23.537,0,0,0,8.067,3.9,32.327,32.327,0,0,0,11.074.913,58.729,58.729,0,0,0,14.306-3.123,117.066,117.066,0,0,0,18.139-8.224,218.965,218.965,0,0,0,21.612-13.772q3-2.142,5.956-4.354a4.382,4.382,0,0,0,1.844-2.4,4.1,4.1,0,0,0-.4-3.092,4.046,4.046,0,0,0-2.4-1.844,3.9,3.9,0,0,0-3.091.405c-10.1,7.553-20.627,14.7-31.9,20.414-2.392,1.211-4.821,2.35-7.291,3.395l.959-.4a72.354,72.354,0,0,1-13.412,4.326q-1.614.333-3.247.557l1.066-.143a33.87,33.87,0,0,1-8.99.1l1.066.144a23.3,23.3,0,0,1-5.892-1.582l.958.4a20.053,20.053,0,0,1-3.17-1.694q-.363-.238-.716-.494c-.1-.075-.2-.152-.308-.228-.573-.423.962.764.412.317-.436-.354-.863-.717-1.271-1.1q-.588-.555-1.131-1.156c-.182-.2-.359-.4-.533-.613s-.8-1.005-.21-.245-.006-.015-.164-.234-.3-.432-.45-.651q-.427-.639-.812-1.3a27.38,27.38,0,0,1-1.513-3.045l.4.958a34.063,34.063,0,0,1-2.1-7.188q-.154-.851-.269-1.708l.143,1.067a35.36,35.36,0,0,1-.3-3.676c0-.073,0-.146,0-.219a4.012,4.012,0,1,0-8.025,0Z" fill="#edf2f4"/>
    </g>
  </g>
</svg>
