<svg xmlns="http://www.w3.org/2000/svg" width="27.076" height="5.657" viewBox="0 0 27.076 5.657">
  <g id="Group_34" data-name="Group 34" transform="translate(-2275.635 -134.005)">
    <g id="Group_32" data-name="Group 32">
      <path id="Path_109" data-name="Path 109" d="M2275.635,135c0,.081,0,.162.01.244a7.065,7.065,0,0,0,.1.78,5.462,5.462,0,0,0,.222.841,4.866,4.866,0,0,0,.5,1.037,4.033,4.033,0,0,0,.938,1,3.581,3.581,0,0,0,1.231.6,4.935,4.935,0,0,0,1.69.139,8.921,8.921,0,0,0,2.183-.477,17.8,17.8,0,0,0,2.768-1.255,33.369,33.369,0,0,0,3.3-2.1c.306-.218.608-.44.909-.665a.666.666,0,0,0,.281-.366.612.612,0,0,0-.427-.753.594.594,0,0,0-.472.062A33.45,33.45,0,0,1,2284,137.2c-.365.185-.736.359-1.113.518l.147-.062a11.005,11.005,0,0,1-2.047.661c-.164.033-.329.062-.495.085l.162-.022a5.164,5.164,0,0,1-1.372.015l.163.022a3.541,3.541,0,0,1-.9-.242l.146.062a3.155,3.155,0,0,1-.484-.258l-.109-.076-.047-.035c-.087-.064.147.117.063.049-.067-.054-.132-.11-.194-.168s-.117-.116-.173-.177l-.081-.093c-.027-.033-.122-.154-.032-.038s0,0-.025-.036-.046-.065-.069-.1c-.043-.065-.084-.131-.123-.2a3.981,3.981,0,0,1-.231-.465l.061.147a5.168,5.168,0,0,1-.32-1.1q-.024-.131-.042-.261l.022.163a5.19,5.19,0,0,1-.045-.561V135a.613.613,0,1,0-1.225,0Z" fill="#fcfcfc"/>
    </g>
    <g id="Group_33" data-name="Group 33">
      <path id="Path_110" data-name="Path 110" d="M2288.561,135c0,.081,0,.162.01.244a7.124,7.124,0,0,0,.1.78,5.331,5.331,0,0,0,.223.841,4.866,4.866,0,0,0,.5,1.037,4.01,4.01,0,0,0,.938,1,3.573,3.573,0,0,0,1.231.6,4.931,4.931,0,0,0,1.69.139,8.923,8.923,0,0,0,2.182-.477,17.762,17.762,0,0,0,2.768-1.255,33.255,33.255,0,0,0,3.3-2.1q.459-.327.909-.665a.668.668,0,0,0,.282-.366.614.614,0,0,0-.428-.753.594.594,0,0,0-.472.062,33.4,33.4,0,0,1-4.868,3.115c-.365.185-.735.359-1.112.518l.146-.062a11,11,0,0,1-2.046.661c-.165.033-.33.062-.5.085l.163-.022a5.165,5.165,0,0,1-1.372.015l.163.022a3.559,3.559,0,0,1-.9-.242l.147.062a3.111,3.111,0,0,1-.484-.258c-.037-.025-.074-.05-.109-.076l-.047-.035c-.088-.064.146.117.062.049-.066-.054-.131-.11-.194-.168s-.117-.116-.172-.177q-.042-.046-.081-.093c-.028-.033-.122-.154-.032-.038s0,0-.025-.036-.047-.065-.069-.1c-.044-.065-.085-.131-.124-.2a4.141,4.141,0,0,1-.231-.465l.062.147a5.171,5.171,0,0,1-.321-1.1c-.016-.087-.029-.174-.041-.261l.022.163a5.521,5.521,0,0,1-.046-.561V135a.612.612,0,1,0-1.225,0Z" fill="#fcfcfc"/>
    </g>
  </g>
</svg>
