<svg xmlns="http://www.w3.org/2000/svg" width="200" height="105.867" viewBox="0 0 200 105.867">
  <g id="Group_106" data-name="Group 106" transform="translate(-1030 -1031.903)">
    <path id="Path_41" data-name="Path 41" d="M1221.666,1097.9c-.028.052-.044.118-.107.126l-.027,0a198.459,198.459,0,0,0-23.278,4.855l-23.224,5.6c-1.971.444-3.909.9-6,1.258a45.5,45.5,0,0,1-6.314.4c-4.051.075-8.037.051-12.038-.008-7.995-.1-15.972-.347-23.951-.684-15.923-1.154-31.861-2.321-47.688-4.712q-11.86-1.8-23.619-4.371c-3.882-1.059-7.778-1.991-11.589-3.3-1.9-.668-3.819-1.245-5.687-1.984l-5.447-2.553c-1.985,4.963-3.2,10.563-2.495,13.42,7.651,31.062,134.7,32.906,147.391,31.492s39.786-15.937,43.112-17.632C1231.23,1114.446,1234.46,1102.947,1221.666,1097.9Z" fill="#d5eaf1"/>
    <path id="Path_42" data-name="Path 42" d="M1126.933,1105.621c7.94.433,15.884.807,23.832,1.016,7.945.057,15.934.824,23.7-1.088l23.406-4.656c7.817-1.412,15.647-2.97,23.634-3.243-.308-8.272-15.6-9.705-29.968-10.515a30.673,30.673,0,1,0-46.488-36.831c-14.663-1.487-41.357-3.288-45.031-3-4.724.371-22.909,26.906-25.994,32.287-4.261-.243-29.631,2.37-34.391,3.381-2.289.486-4.872,4.522-6.789,9.2,14.821,5.768,30.825,7.615,46.542,9.606C1095.185,1103.595,1111.053,1104.774,1126.933,1105.621Zm51.988-25.968-11.876-.678-.855-21.02,11.8,2.465a1.906,1.906,0,0,1,1.509,1.688l1.452,15.435A1.933,1.933,0,0,1,1178.921,1079.653Zm-.641-39.821a23.01,23.01,0,0,1,6.093,44.761c-.493-6.153-1.93-23.6-2.521-25.565-.634-2.112-17.012-5.286-25.2-6.986A23,23,0,0,1,1178.28,1039.832Zm-15.961,17.314.878,21.61-16.367-.934,3.57-23.165Zm-62.468-6.858c2.086.119,37.343,2.543,46.773,3.7l-3.635,23.58c-11.49-1.03-58.1-6.719-59.222-6.784C1082.57,1070.713,1097.577,1050.158,1099.851,1050.288Z" fill="#d5eaf1"/>
  </g>
</svg>
