<svg xmlns="http://www.w3.org/2000/svg" width="182.535" height="116.147" viewBox="0 0 182.535 116.147">
  <g id="Group_147" data-name="Group 147" transform="translate(-45.806 -4099.498)">
    <path id="Path_104" data-name="Path 104" d="M197.964,4108.456a61.132,61.132,0,0,0-26.043-8.795,41.539,41.539,0,0,0-26.992,6.635c-6.362,4.312-10.667,8.006-13.939,11.982a32.522,32.522,0,0,0-7.589,18.394c-8.887-10.556-20.608-12.771-35.042-12.551a41.461,41.461,0,0,0-25.923,10.016,61.2,61.2,0,0,0-16.431,22.39,2.345,2.345,0,0,0,3.72,2.687,56.444,56.444,0,0,1,19.914-11.467v0a63.061,63.061,0,0,1,19.023-3.2c14.906-.23,28.892,4.554,39.379,13.468a2.33,2.33,0,0,0,2.226.453,2.376,2.376,0,0,0,1.565-1.645,56.574,56.574,0,0,1,11.1-21.4,64.082,64.082,0,0,1,30.871-20.475,56.6,56.6,0,0,1,22.889-2,2.392,2.392,0,0,0,2.121-.838l.032-.039a2.369,2.369,0,0,0-.35-3.288A2.16,2.16,0,0,0,197.964,4108.456Z" fill="#d5eaf1"/>
    <path id="Path_105" data-name="Path 105" d="M227.868,4201.138a46.874,46.874,0,0,0-15.623-14.131,31.841,31.841,0,0,0-21-3.573,48.8,48.8,0,0,0-13.455,4.169,24.928,24.928,0,0,0-10.949,10.614c-3.026-10.132-10.589-15.266-20.8-19.517a31.77,31.77,0,0,0-21.28-.87,46.889,46.889,0,0,0-18.383,10.725,1.8,1.8,0,0,0,1.795,3.024,43.253,43.253,0,0,1,17.5-1.984h0a48.346,48.346,0,0,1,14.347,3.559,45.315,45.315,0,0,1,23.572,21.486,1.785,1.785,0,0,0,1.427,1,1.823,1.823,0,0,0,1.6-.678,43.356,43.356,0,0,1,14.337-11.656,49.119,49.119,0,0,1,27.95-4.972,43.355,43.355,0,0,1,16.7,5.581,1.834,1.834,0,0,0,1.747.058l.034-.017a1.815,1.815,0,0,0,.758-2.419A1.684,1.684,0,0,0,227.868,4201.138Z" fill="#d5eaf1"/>
  </g>
</svg>
